<svg xmlns="http://www.w3.org/2000/svg" width="19.842" height="19.842" viewBox="0 0 19.842 19.842">
  <g id="add" style="isolation: isolate">
    <path id="Path_23658" data-name="Path 23658" d="M19.9,14.834H16.355V11.281a.763.763,0,0,0-1.522,0v3.553H11.275a.731.731,0,0,0-.763.763.739.739,0,0,0,.763.763h3.553v3.55a.739.739,0,0,0,.763.763.759.759,0,0,0,.764-.763V16.361H19.9a.763.763,0,0,0,0-1.522Z" transform="translate(-5.671 -5.676)" fill="#ddd"/>
    <path id="Path_23659" data-name="Path 23659" d="M13.3,4.71A8.582,8.582,0,1,1,7.225,7.224,8.582,8.582,0,0,1,13.3,4.71m0-1.335A9.921,9.921,0,1,0,23.217,13.3,9.921,9.921,0,0,0,13.3,3.375Z" transform="translate(-3.375 -3.375)" fill="#ddd"/>
  </g>
</svg>
