<svg xmlns="http://www.w3.org/2000/svg" xmlns:xlink="http://www.w3.org/1999/xlink" width="384" height="94.677" viewBox="0 0 384 94.677">
  <defs>
    <clipPath id="clip-path">
      <rect id="Rectangle_4652" data-name="Rectangle 4652" width="384" height="94.677" transform="translate(622 212.661)" fill="#61aaff"/>
    </clipPath>
  </defs>
  <g id="Mask_Group_30" data-name="Mask Group 30" transform="translate(-622 -212.661)" clip-path="url(#clip-path)">
    <g id="Group_24907" data-name="Group 24907" transform="translate(530.736 212.661)">
      <path id="Path_17" data-name="Path 17" d="M955.659,639.12l-122.5-256.384c-6.624-13.868-18.868-22.411-32.119-22.411h-245c-13.25,0-25.494,8.543-32.118,22.41L401.418,639.12a53.046,53.046,0,0,0,0,44.807L523.927,940.312c6.625,13.865,18.869,22.4,32.119,22.4h245c13.25,0,25.494-8.535,32.119-22.4l122.5-256.384a52.954,52.954,0,0,0,0-44.808Z" transform="translate(-396.455 -360.325)" fill="#fbf6f1"/>
    </g>
  </g>
</svg>
