<svg xmlns="http://www.w3.org/2000/svg" xmlns:xlink="http://www.w3.org/1999/xlink" width="464" height="94.677" viewBox="0 0 464 94.677">
  <defs>
    <clipPath id="clip-path">
      <rect id="Rectangle_4652" data-name="Rectangle 4652" width="464" height="94.677" transform="translate(622 212.661)" fill="#61aaff"/>
    </clipPath>
  </defs>
  <g id="Mask_Group_30" data-name="Mask Group 30" transform="translate(-622 -212.661)" clip-path="url(#clip-path)">
    <g id="Group_24907" data-name="Group 24907" transform="translate(-120.969 -357.758)">
      <path id="Path_17" data-name="Path 17" d="M1072.161,639.12,924.144,382.736a44.81,44.81,0,0,0-38.81-22.411H589.294a44.811,44.811,0,0,0-38.81,22.411L402.452,639.12a44.845,44.845,0,0,0,0,44.807L550.484,940.312a44.8,44.8,0,0,0,38.81,22.4H885.334a44.8,44.8,0,0,0,38.81-22.4l148.017-256.384A44.771,44.771,0,0,0,1072.161,639.12Z" transform="translate(236.237 210.094)" fill="#fbf6f1"/>
    </g>
  </g>
</svg>
