<svg xmlns="http://www.w3.org/2000/svg" width="22" height="22" viewBox="0 0 22 22">
  <path id="Path_24091" data-name="Path 24091" d="M464.2,1236.588h2.68a2.593,2.593,0,1,1,0,5.177h-2.75v1.294h2.75a2.593,2.593,0,1,1,0,5.177h-2.75v1.294h2.75a2.593,2.593,0,1,1,0,5.177h-2.349a1.879,1.879,0,0,0,.4.531c.806.764,2.1.764,4.694.764H476.5c2.593,0,3.888,0,4.694-.764s.806-1.967.806-4.413v-11.647c0-2.446,0-3.662-.806-4.413s-2.1-.763-4.694-.763h-6.875c-2.593,0-3.888,0-4.694.763A2.675,2.675,0,0,0,464.2,1236.588Zm12.3,6.471a1.338,1.338,0,0,1-1.375-1.294v-2.588a1.378,1.378,0,0,1,2.75,0v2.588A1.338,1.338,0,0,1,476.5,1243.059Zm-15.125-5.176a1.3,1.3,0,1,0,0,2.588h5.5a1.3,1.3,0,1,0,0-2.588Zm0,6.471a1.3,1.3,0,1,0,0,2.588h5.5a1.3,1.3,0,1,0,0-2.588Zm0,6.471a1.3,1.3,0,1,0,0,2.588h5.5a1.3,1.3,0,1,0,0-2.588Z" transform="translate(-460 -1234)" fill="#fff" fill-rule="evenodd"/>
</svg>
