<svg xmlns="http://www.w3.org/2000/svg" width="16.139" height="28.697" viewBox="0 0 16.139 28.697">
  <path id="Icon_awesome-dollar-sign" data-name="Icon awesome-dollar-sign" d="M11.726,13.082,5.673,11.311a1.653,1.653,0,0,1,.465-3.24H9.854a3.421,3.421,0,0,1,1.917.589.874.874,0,0,0,1.093-.112l1.951-1.906a.909.909,0,0,0-.1-1.373A7.926,7.926,0,0,0,9.865,3.587V.9a.9.9,0,0,0-.9-.9H7.175a.9.9,0,0,0-.9.9v2.69h-.14a6.141,6.141,0,0,0-6.109,6.7,6.416,6.416,0,0,0,4.7,5.414l5.745,1.681a1.653,1.653,0,0,1-.465,3.24H6.289a3.421,3.421,0,0,1-1.917-.589.874.874,0,0,0-1.093.112L1.329,22.055a.909.909,0,0,0,.1,1.373A7.926,7.926,0,0,0,6.278,25.11V27.8a.9.9,0,0,0,.9.9H8.968a.9.9,0,0,0,.9-.9V25.1a6.331,6.331,0,0,0,5.924-4.075,6.155,6.155,0,0,0-4.064-7.942Z" transform="translate(-0.003)" fill="#fff"/>
</svg>
