<svg xmlns="http://www.w3.org/2000/svg" width="24" height="18" viewBox="0 0 24 18">
  <path id="Path_875" data-name="Path 875" d="M122,1177h24c-.014-2.616-.13-4.02-1.052-4.944C143.892,1171,142.194,1171,138.8,1171h-9.6c-3.394,0-5.092,0-6.145,1.056C122.132,1172.98,122.017,1174.384,122,1177Zm24,2.4H122v2.4c0,3.4,0,5.088,1.055,6.144S125.806,1189,129.2,1189h9.6c3.394,0,5.092,0,6.145-1.056S146,1185.2,146,1181.8Zm-18,3.6a1.2,1.2,0,0,0,0,2.4h.012a1.2,1.2,0,0,0,0-2.4Z" transform="translate(-122 -1171)" fill="#585858" fill-rule="evenodd"/>
</svg>
