<svg xmlns="http://www.w3.org/2000/svg" width="22" height="22" viewBox="0 0 22 22">
    <path fill="#31dab4" fill-rule="evenodd" d="M2.967 2.967C2 3.933 2 5.489 2 8.6v8.8c0 3.111 0 4.667.967 5.633S5.489 24 8.6 24h8.8c3.111 0 4.667 0 5.633-.967S24 20.511 24 17.4V8.6c0-3.111 0-4.667-.967-5.633S20.511 2 17.4 2H8.6c-3.111 0-4.667 0-5.633.967zm16.448 7.343a1.1 1.1 0 0 0-1.831-1.22l-3.349 5.023-.5-1.009a2.2 2.2 0 0 0-3.8-.236l-3.35 5.022a1.1 1.1 0 1 0 1.831 1.22l3.349-5.023.5 1.009a2.2 2.2 0 0 0 3.8.236z" transform="translate(-2 -2)"/>
</svg>
