<svg xmlns="http://www.w3.org/2000/svg" width="23" height="23" viewBox="0 0 23 23">
    <path fill="#4499fb" fill-rule="evenodd" d="M14.5 3a11.5 11.5 0 0 0 0 23h5.75a9.559 9.559 0 0 0 3.384-.292 3.833 3.833 0 0 0 2.074-2.074A9.559 9.559 0 0 0 26 20.25V14.5A11.5 11.5 0 0 0 14.5 3zM9.389 13.222a1.278 1.278 0 0 1 1.278-1.278h7.667a1.278 1.278 0 0 1 0 2.556h-7.667a1.278 1.278 0 0 1-1.278-1.278zm3.833 5.111a1.278 1.278 0 0 1 1.278-1.277h3.833a1.278 1.278 0 1 1 0 2.556H14.5a1.278 1.278 0 0 1-1.278-1.279z" transform="translate(-3 -3)"/>
</svg>
