<svg xmlns="http://www.w3.org/2000/svg" viewBox="0 0 16 16" width="16" height="16">
	<style>
		tspan { white-space:pre }
		.shp0 { fill: #1d2e4a } 
	</style>
	<path id="edit" fill-rule="evenodd" class="shp0" d="M12.73 0C13.17 0 13.6 0.12 13.97 0.35C14.35 0.58 14.65 0.91 14.84 1.31C15.04 1.7 15.12 2.13 15.08 2.57C15.04 3.01 14.88 3.42 14.62 3.77L13.68 4.72L10.38 1.42L11.32 0.47C11.42 0.4 11.53 0.33 11.64 0.27C11.75 0.21 11.87 0.16 11.99 0.12C12.11 0.08 12.23 0.05 12.35 0.03C12.48 0.01 12.6 0 12.73 0L12.73 0ZM9.67 2.12L12.97 5.42L4.24 14.15L0 15.09L0.94 10.85L9.67 2.12ZM9.73 4.55L3.13 11.15L3.94 11.97L10.54 5.36L9.73 4.55Z" />
</svg>