<svg xmlns="http://www.w3.org/2000/svg" width="22.561" height="17.627" viewBox="0 0 22.561 17.627">
    <path fill="#484848" d="M0 8.872v-.705a1.058 1.058 0 0 1 1.058-1.058H16.92V4.994a1.058 1.058 0 0 1 1.805-.748l3.525 3.525a1.058 1.058 0 0 1 0 1.5l-3.525 3.525a1.058 1.058 0 0 1-1.805-.748V9.93H1.058A1.058 1.058 0 0 1 0 8.872zm21.5 6.7H5.64v-2.117a1.058 1.058 0 0 0-1.805-.748L.31 16.232a1.058 1.058 0 0 0 0 1.5l3.525 3.525A1.058 1.058 0 0 0 5.64 20.5v-2.11H21.5a1.058 1.058 0 0 0 1.058-1.058v-.705A1.058 1.058 0 0 0 21.5 15.57z" transform="translate(0 -3.936)"/>
</svg>
