<svg xmlns="http://www.w3.org/2000/svg" width="24.859" height="24.086" viewBox="0 0 24.859 24.086">
  <g id="fav" transform="translate(0 -0.001)">
    <path id="Path_23932" data-name="Path 23932" d="M8.562,3.649C9.487,1.344,9.949.191,10.7.032a1.44,1.44,0,0,1,.6,0c.751.16,1.214,1.312,2.138,3.618a6.39,6.39,0,0,0,1.281,2.412,2.883,2.883,0,0,0,.447.333,6.46,6.46,0,0,0,2.7.533c2.4.215,3.6.323,3.972,1.008a1.444,1.444,0,0,1,.153.455c.122.768-.762,1.571-2.529,3.179l-.491.446a6.367,6.367,0,0,0-1.478,1.6,2.878,2.878,0,0,0-.284.9,6.359,6.359,0,0,0,.288,2.156l.086.39c.434,1.955.651,2.933.38,3.413a1.44,1.44,0,0,1-1.186.731c-.551.026-1.327-.606-2.88-1.871a6.776,6.776,0,0,0-2.1-1.413,2.881,2.881,0,0,0-1.588,0,6.775,6.775,0,0,0-2.1,1.413c-1.552,1.265-2.329,1.9-2.88,1.871a1.44,1.44,0,0,1-1.186-.731c-.271-.481-.054-1.458.38-3.413l.086-.39A6.365,6.365,0,0,0,4.8,14.516a2.881,2.881,0,0,0-.284-.9,6.365,6.365,0,0,0-1.478-1.6l-.491-.446C.773,9.961-.111,9.158.011,8.39a1.441,1.441,0,0,1,.153-.455c.367-.685,1.569-.793,3.972-1.008a6.461,6.461,0,0,0,2.7-.533,2.88,2.88,0,0,0,.447-.333A6.391,6.391,0,0,0,8.562,3.649Z" transform="translate(1.428 1.441)" fill="#585858" stroke="#585858" stroke-width="2.88"/>
  </g>
</svg>
