<svg xmlns="http://www.w3.org/2000/svg" width="22.238" height="21.995" viewBox="0 0 22.238 21.995">
  <path id="filter" d="M11.226,22.731l.391,1.172ZM17.4,20.672l.391,1.172ZM23.641,7.3l.874.874Zm-5.453,5.453-.874-.874ZM5.471,4.471h17.3V2H5.471Zm0,1.959V4.471H3V6.43Zm5.453,5.453L5.471,6.43,3.724,8.177,9.177,13.63ZM9.177,13.631v8.515h2.471V13.631Zm0,8.515A1.853,1.853,0,0,0,11.616,23.9l-.781-2.344a.618.618,0,0,1,.813.586ZM11.616,23.9l6.177-2.059L17.012,19.5l-6.177,2.059Zm6.177-2.059a1.853,1.853,0,0,0,1.267-1.758H16.59a.618.618,0,0,1,.422-.586Zm1.267-1.758V13.631H16.59v6.456ZM22.767,6.43l-5.453,5.453,1.747,1.747,5.453-5.453Zm0-1.959V6.43h2.471V4.471Zm1.747,3.706a2.471,2.471,0,0,0,.724-1.747H22.767ZM19.061,13.63l-1.747-1.747a4.532,4.532,0,0,0-.724,1.747Zm-9.884,0h2.471a2.471,2.471,0,0,0-.724-1.747ZM3,6.43a2.471,2.471,0,0,0,.724,1.747L5.471,6.43ZM22.767,4.471h2.471A2.471,2.471,0,0,0,22.767,2ZM5.471,2A2.471,2.471,0,0,0,3,4.471H5.471Z" transform="translate(-3 -2)" fill="#585858"/>
</svg>
