<svg xmlns="http://www.w3.org/2000/svg" width="22.238" height="22" viewBox="0 0 22.238 22">
    <path fill="#fff" d="M11.226 22.731l.391 1.172zm6.174-2.059l.391 1.172zM23.641 7.3l.874.874zm-5.453 5.453l-.874-.874zM5.471 4.471h17.3V2h-17.3zm0 1.959V4.471H3V6.43zm5.453 5.453L5.471 6.43 3.724 8.177l5.453 5.453zm-1.747 1.748v8.515h2.471v-8.515zm0 8.515a1.853 1.853 0 0 0 2.439 1.754l-.781-2.344a.618.618 0 0 1 .813.586zm2.439 1.754l6.177-2.059-.781-2.341-6.177 2.059zm6.177-2.059a1.853 1.853 0 0 0 1.267-1.758h-2.47a.618.618 0 0 1 .422-.586zm1.267-1.758v-6.452h-2.47v6.456zM22.767 6.43l-5.453 5.453 1.747 1.747 5.453-5.453zm0-1.959V6.43h2.471V4.471zm1.747 3.706a2.471 2.471 0 0 0 .724-1.747h-2.471zm-5.453 5.453l-1.747-1.747a4.532 4.532 0 0 0-.724 1.747zm-9.884 0h2.471a2.471 2.471 0 0 0-.724-1.747zM3 6.43a2.471 2.471 0 0 0 .724 1.747L5.471 6.43H3zm19.767-1.959h2.471A2.471 2.471 0 0 0 22.767 2zM5.471 2A2.471 2.471 0 0 0 3 4.471h2.471z" transform="translate(-3 -2)"/>
</svg>
