<svg xmlns="http://www.w3.org/2000/svg" viewBox="0 0 20 20" width="20" height="20">
	<style>
		tspan { white-space:pre }
		.shp0 { fill: #1d2e4a } 
	</style>
	<g id="add">
		<path id="Path_23658" class="shp0" d="M14.23 9.16L10.68 9.16L10.68 5.61C10.67 5.41 10.58 5.23 10.44 5.1C10.3 4.97 10.12 4.9 9.92 4.9C9.73 4.9 9.54 4.97 9.4 5.1C9.26 5.23 9.18 5.41 9.16 5.61L9.16 9.16L5.6 9.16C5.5 9.15 5.4 9.17 5.31 9.21C5.21 9.24 5.13 9.3 5.05 9.37C4.98 9.44 4.93 9.53 4.89 9.62C4.85 9.72 4.84 9.82 4.84 9.92C4.84 10.02 4.86 10.12 4.89 10.22C4.93 10.31 4.99 10.4 5.06 10.47C5.13 10.54 5.21 10.6 5.31 10.63C5.4 10.67 5.5 10.69 5.6 10.68L9.16 10.68L9.16 14.23C9.15 14.34 9.17 14.44 9.21 14.53C9.25 14.62 9.3 14.71 9.37 14.78C9.44 14.85 9.53 14.91 9.62 14.95C9.72 14.98 9.82 15 9.92 15C10.02 15 10.12 14.98 10.21 14.94C10.31 14.9 10.39 14.85 10.46 14.78C10.53 14.7 10.59 14.62 10.63 14.53C10.67 14.43 10.68 14.33 10.68 14.23L10.68 10.69L14.23 10.69C14.42 10.67 14.6 10.58 14.73 10.44C14.86 10.3 14.94 10.12 14.94 9.92C14.94 9.73 14.86 9.55 14.73 9.4C14.6 9.26 14.42 9.18 14.23 9.16L14.23 9.16Z" />
		<path id="Path_23659" fill-rule="evenodd" class="shp0" d="M9.92 0C11.23 0 12.52 0.26 13.72 0.76C14.92 1.26 16.02 1.99 16.94 2.91C17.86 3.83 18.59 4.92 19.09 6.13C19.59 7.33 19.84 8.62 19.84 9.93C19.84 13.94 17.42 17.55 13.71 19.09C10.01 20.62 5.74 19.77 2.9 16.93C0.07 14.09 -0.78 9.83 0.76 6.12C2.29 2.41 5.91 0 9.92 0ZM9.93 1.34C9.36 1.33 8.8 1.39 8.25 1.5C7.7 1.61 7.16 1.77 6.64 1.99C6.12 2.2 5.62 2.47 5.15 2.78C4.68 3.09 4.25 3.45 3.85 3.85C0.96 6.74 0.51 11.28 2.78 14.68C5.06 18.09 9.42 19.41 13.2 17.85C16.98 16.28 19.13 12.26 18.34 8.25C17.54 4.23 14.02 1.34 9.93 1.34Z" />
	</g>
</svg>