<svg xmlns="http://www.w3.org/2000/svg" width="22" height="31.779" viewBox="0 0 22 31.779">
  <g id="logout" transform="translate(0 0.001)">
    <path id="Path_23933" data-name="Path 23933" d="M22,18.246H14.333l3.222,4.028-3.681,2.945L7.588,17.362,6.41,15.889l1.178-1.472L13.874,6.56,17.555,9.5l-3.222,4.027H22c0-6.159,0-9.244-1.662-11.213a7.069,7.069,0,0,0-1.751-1.5C16.38-.513,13.323-.033,7.21.928c-3.067.482-4.6.723-5.637,1.649a4.714,4.714,0,0,0-.819.958C0,4.7,0,6.254,0,9.359v13.06c0,3.1,0,4.657.754,5.824a4.715,4.715,0,0,0,.819.958c1.036.926,2.57,1.167,5.637,1.649,6.113.961,9.17,1.441,11.377.106a7.07,7.07,0,0,0,1.751-1.5C22,27.49,22,24.406,22,18.246Z" fill="#585858" fill-rule="evenodd"/>
  </g>
</svg>
