<svg xmlns="http://www.w3.org/2000/svg" width="209.827" height="59.614" viewBox="0 0 209.827 59.614">
    <defs>
        <style>
            .cls-1{fill:#fff}
        </style>
    </defs>
    <g id="Group_24611" transform="translate(-630 -28)">
        <g id="Timeline" transform="translate(630 28)">
            <g id="Group">
                <g id="Group-2">
                    <path id="Path-17" d="M11.59 1.413h-.6l.3-.035zM22.85.01v7.08a6.794 6.794 0 0 1-6.814 6.768H6.814A6.787 6.787 0 0 1 0 7.09V0l11.292 1.377zM4.972 7.09a1.825 1.825 0 0 0 1.842 1.818h9.222a1.833 1.833 0 0 0 1.842-1.818V5.584l-6.595.78-6.311-.77z" class="cls-1" transform="rotate(-137 21.466 25.345)"/>
                    <path id="Line-Copy-5" d="M.011 2.486A2.493 2.493 0 0 1 2.5 0a2.468 2.468 0 0 1 2.473 2.475l-.011 5.051a2.493 2.493 0 0 1-2.486 2.486A2.468 2.468 0 0 1 0 7.537z" class="cls-1" transform="rotate(-137 16.063 25.805)"/>
                    <path id="Rectangle-3" d="M4.972 6.61v1.273a1.671 1.671 0 0 0 1.672 1.659h10.337a1.662 1.662 0 0 0 1.672-1.659V6.61a1.671 1.671 0 0 0-1.672-1.659H6.644A1.662 1.662 0 0 0 4.972 6.61zM0 6.61A6.623 6.623 0 0 1 6.644 0h10.337a6.632 6.632 0 0 1 6.644 6.61v1.273a6.623 6.623 0 0 1-6.644 6.61H6.644A6.632 6.632 0 0 1 0 7.883z" class="cls-1" transform="rotate(-137 13.9 9.953)"/>
                    <path id="Rectangle-3-2" d="M4.972 6.61v1.272a1.671 1.671 0 0 0 1.672 1.66h10.337a1.662 1.662 0 0 0 1.672-1.66V6.61a1.671 1.671 0 0 0-1.672-1.66H6.644a1.662 1.662 0 0 0-1.672 1.66zM0 6.61A6.623 6.623 0 0 1 6.644 0h10.337a6.632 6.632 0 0 1 6.644 6.61v1.272a6.623 6.623 0 0 1-6.644 6.61H6.644A6.632 6.632 0 0 1 0 7.882z" class="cls-1" transform="rotate(-137 37.977 19.473)"/>
                    <path id="Rectangle-3-3" d="M5.454 4.951l3.494 22.234h4.32l3.493-22.234zm11.823-3.284q0 .029-.009.058zM20.053 0a2.07 2.07 0 0 1 2.128 2.488l-4.268 27.16a3.109 3.109 0 0 1-2.974 2.488H7.276A3.107 3.107 0 0 1 4.3 29.648L.035 2.488A2.071 2.071 0 0 1 2.162 0z" class="cls-1" transform="rotate(-137 24.344 17.491)"/>
                </g>
            </g>
        </g>
        <g id="Timeline-2" transform="translate(707.042 40.542)">
            <path id="Botnik" d="M14.979 34.975q4.859 0 7.461-2.193a7.552 7.552 0 0 0 2.6-6.106 7.3 7.3 0 0 0-1.613-4.687 7.613 7.613 0 0 0-4.365-2.666 6.738 6.738 0 0 0 3.827-2.387 7.1 7.1 0 0 0 1.462-4.58A6.939 6.939 0 0 0 21.816 6.6q-2.537-2.021-7.181-2.021H.832v30.4zM13 17H8.185v-6.535h4.73q3.913 0 3.913 3.268T13 17zm.43 12H8.185v-6.839h5.2a4.545 4.545 0 0 1 3.053.925 3.2 3.2 0 0 1 1.075 2.559Q17.516 29 13.431 29zm25.628 6.278a13.493 13.493 0 0 0 6.386-1.484 10.876 10.876 0 0 0 4.429-4.279 12.849 12.849 0 0 0 1.613-6.536 12.849 12.849 0 0 0-1.613-6.536 10.876 10.876 0 0 0-4.429-4.279 13.493 13.493 0 0 0-6.386-1.484 13.621 13.621 0 0 0-6.407 1.484 10.842 10.842 0 0 0-4.451 4.278 12.849 12.849 0 0 0-1.613 6.536 12.849 12.849 0 0 0 1.613 6.536 10.842 10.842 0 0 0 4.451 4.279 13.621 13.621 0 0 0 6.408 1.483zm0-6.407a4.717 4.717 0 0 1-3.548-1.505 6.1 6.1 0 0 1-1.441-4.386 6.184 6.184 0 0 1 1.441-4.408 4.685 4.685 0 0 1 3.548-1.527 4.618 4.618 0 0 1 3.526 1.527A6.243 6.243 0 0 1 44 22.978a6.163 6.163 0 0 1-1.419 4.386 4.649 4.649 0 0 1-3.522 1.505zm28.767 6.106v-6.323H65.5a2.775 2.775 0 0 1-1.957-.559 2.7 2.7 0 0 1-.58-1.978v-8.944h4.816v-6.192h-4.812V5.09h-7.353v5.891h-3.225v6.192h3.225v8.815q0 4.816 2.344 6.9a9.528 9.528 0 0 0 6.558 2.086h3.311zm10.406 0v-12.73a5.74 5.74 0 0 1 1.312-4.042 4.6 4.6 0 0 1 3.548-1.419 4.406 4.406 0 0 1 3.376 1.355 5.289 5.289 0 0 1 1.269 3.759v13.075h7.353V21.043a11.038 11.038 0 0 0-2.43-7.568 8.305 8.305 0 0 0-6.559-2.752 9.018 9.018 0 0 0-4.795 1.247 7.915 7.915 0 0 0-3.075 3.4v-4.389h-7.351v23.994zm24.34-26.92a4.543 4.543 0 0 0 3.182-1.1 3.542 3.542 0 0 0 1.2-2.731 3.589 3.589 0 0 0-1.2-2.774 5.165 5.165 0 0 0-6.364 0 3.589 3.589 0 0 0-1.2 2.774 3.542 3.542 0 0 0 1.2 2.731 4.543 4.543 0 0 0 3.182 1.1zm3.655 26.918V10.981h-7.353v23.994zm11.352 0V24.784l7.181 10.191h8.858l-9.89-12 9.675-12h-8.643l-7.181 9.632V3.155h-7.353v31.82z" class="cls-1" transform="translate(-.832 -.36)"/>
        </g>
    </g>
</svg>
