<svg xmlns="http://www.w3.org/2000/svg" width="20.923" height="24" viewBox="0 0 20.923 24">
    <path fill="#fff" d="M25.692 23.676L10.726 8.23 7.563 4.968 6 6.532l3.446 3.446v.012a9.036 9.036 0 0 0-.984 4.21v6.154L6 22.815v1.231h16.9l2.462 2.462 1.563-1.563zm-9.846 4.074a2.453 2.453 0 0 0 2.462-2.462h-4.923a2.453 2.453 0 0 0 2.461 2.462zm7.385-9.009v-4.529c0-3.791-2.018-6.942-5.538-7.778V5.6A1.846 1.846 0 1 0 14 5.6v.837a5.18 5.18 0 0 0-.517.148c-.123.037-.246.086-.369.135H13.1c-.012 0-.012 0-.025.012-.283.111-.566.246-.837.382a.012.012 0 0 0-.012.012z" transform="translate(-6 -3.75)"/>
</svg>
