<svg xmlns="http://www.w3.org/2000/svg" width="22.838" height="22.535" viewBox="0 0 22.838 22.535">
  <g id="notifi" transform="translate(0 0)">
    <g id="Group_24886" data-name="Group 24886" transform="translate(0 0.179)">
      <path id="Path_23934" data-name="Path 23934" d="M16.952,3.388A7.35,7.35,0,0,0,7.291,9.535l-.331,2.98-.008.076A10.52,10.52,0,0,1,5.54,16.772l-.039.065L4.741,18.1c-.69,1.15-1.035,1.725-.96,2.2a1.315,1.315,0,0,0,.455.8c.366.307,1.037.307,2.378.307H22.572c1.341,0,2.011,0,2.378-.307a1.315,1.315,0,0,0,.455-.8c.074-.472-.271-1.047-.96-2.2l-.76-1.267-.039-.065a10.519,10.519,0,0,1-1.262-3.252,6.576,6.576,0,0,1-5.43-10.132Zm3.261,2.228a7.323,7.323,0,0,1,1.678,3.893,2.631,2.631,0,0,1-1.678-3.893Z" transform="translate(-3.771 -3)" fill="#585858" fill-rule="evenodd"/>
      <path id="Path_23935" data-name="Path 23935" d="M9,17a3.945,3.945,0,1,0,7.89,0Z" transform="translate(-2.123 1.411)" fill="#585858"/>
      <circle id="Ellipse_1277" data-name="Ellipse 1277" cx="3.288" cy="3.288" r="3.288" transform="translate(15.425 0.658)" fill="#585858" stroke="#585858" stroke-width="1.674"/>
    </g>
  </g>
</svg>
