<svg xmlns="http://www.w3.org/2000/svg" width="22.837" height="22.535" viewBox="0 0 22.837 22.535">
    <g>
        <g fill="#fff" transform="translate(14 14.406) translate(-14 -14.227)">
            <path fill-rule="evenodd" d="M16.952 3.388a7.35 7.35 0 0 0-9.661 6.147l-.331 2.98-.008.076a10.52 10.52 0 0 1-1.412 4.181l-.039.065-.76 1.263c-.69 1.15-1.035 1.725-.96 2.2a1.315 1.315 0 0 0 .455.8c.366.307 1.037.307 2.378.307h15.958c1.341 0 2.011 0 2.378-.307a1.315 1.315 0 0 0 .455-.8c.074-.472-.271-1.047-.96-2.2l-.76-1.267-.039-.065a10.519 10.519 0 0 1-1.262-3.252 6.576 6.576 0 0 1-5.43-10.132zm3.261 2.228a7.323 7.323 0 0 1 1.678 3.893 2.631 2.631 0 0 1-1.678-3.893z" transform="translate(-3.771 -3)"/>
            <path d="M9 17a3.945 3.945 0 0 0 7.89 0H9z" transform="translate(-2.123 1.411)"/>
            <circle cx="3.288" cy="3.288" r="3.288" stroke="#fff" stroke-width="1.674px" transform="translate(15.425 .658)"/>
        </g>
    </g>
</svg>
