<svg xmlns="http://www.w3.org/2000/svg" width="20.212" height="22" viewBox="0 0 20.212 22">
    <defs>
        <style>
            .cls-1{fill:#fff}
        </style>
    </defs>
    <g id="ic_people" transform="translate(10.106 11)">
        <g id="User_fill-1" transform="translate(-10.106 -11)">
            <path id="Path_23861" d="M21.786 16.536a.994.994 0 0 0 .734-1.436 9.165 9.165 0 0 0-3.361-3.351A13.019 13.019 0 0 0 12.534 10a13.021 13.021 0 0 0-6.625 1.749A9.168 9.168 0 0 0 2.548 15.1a.994.994 0 0 0 .734 1.435 45.347 45.347 0 0 0 18.504.001z" class="cls-1" transform="translate(-2.428 4.51)"/>
            <circle id="Ellipse_1270" cx="6.046" cy="6.046" r="6.046" class="cls-1" transform="translate(4.06)"/>
        </g>
    </g>
</svg>
