<svg xmlns="http://www.w3.org/2000/svg" width="20.19" height="21.999" viewBox="0 0 20.19 21.999">
  <g id="ic_people" transform="translate(10.095 11)">
    <g id="User_fill-1" transform="translate(-10.106 -11)">
      <path id="Path_23861" d="M21.786,16.536A.994.994,0,0,0,22.52,15.1a9.165,9.165,0,0,0-3.361-3.351A13.019,13.019,0,0,0,12.534,10a13.021,13.021,0,0,0-6.625,1.749A9.168,9.168,0,0,0,2.548,15.1a.994.994,0,0,0,.734,1.435,45.347,45.347,0,0,0,18.5,0Z" transform="translate(-2.428 4.51)" fill="#585858"/>
      <circle id="Ellipse_1270" cx="6.046" cy="6.046" r="6.046" transform="translate(4.06 0)" fill="#585858"/>
    </g>
  </g>
</svg>
