<svg xmlns="http://www.w3.org/2000/svg" width="22" height="22" viewBox="0 0 22 22">
    <g>
        <g transform="translate(11 11) translate(-11 -11)">
            <path fill="#fff" fill-rule="evenodd" d="M1.333 12.333a11 11 0 1 1 18.648 7.907 8.25 8.25 0 0 0-15.3 0 10.968 10.968 0 0 1-3.348-7.907zm15.781 9.719a1.665 1.665 0 0 0 .053.165 11.024 11.024 0 0 1-9.669 0 1.661 1.661 0 0 0 .053-.165 4.95 4.95 0 0 1 9.563 0zM10.683 9.033a1.65 1.65 0 1 1 1.65 1.65 1.65 1.65 0 0 1-1.65-1.65zm1.65-4.95a4.95 4.95 0 1 0 4.95 4.95 4.95 4.95 0 0 0-4.95-4.95z" transform="translate(-1.333 -1.333)"/>
            <rect width="20.35" height="20.35" fill="none" stroke="#fff" stroke-width="1.65px" rx="10.175" transform="translate(.825 .825)"/>
        </g>
    </g>
</svg>
