<svg id="questions" xmlns="http://www.w3.org/2000/svg" width="22" height="21.996" viewBox="0 0 22 21.996">
  <g id="Group_24888" data-name="Group 24888">
    <path id="Path_23937" data-name="Path 23937" d="M13.136,2.361l1-.1Zm-.152-.82L12.1,2Zm.447,2.276.8-.607Zm.928.385-.133-.991ZM15.6,3.381l.633.774Zm.687-.472.3.953Zm.7.035.4-.918Zm.637.538-.707.707Zm.893.893.707-.707Zm.538.637.918-.4Zm.035.7.953.3Zm-.472.687-.774-.633ZM17.8,7.641l-.991-.133Zm.384.928-.606.8Zm1.457.3.1-1Zm.82.152.458-.889Zm.471.521.93-.368Zm0,2.925L20,12.1Zm-.472.521.458.889Zm-.82.152-.1-.995h-.033l-.032.005Zm0,0,.1,1h.033l.032-.005Zm-1.456.3-.606-.8Zm-.385.929-.991.134ZM18.62,15.6l-.774.633Zm.472.687-.952.3Zm-.035.7-.917-.4Zm-.538.637.707.707Zm-.894.894-.707-.707Zm-.637.538.4.917Zm-.7.035-.3.952Zm-.687-.472.633-.774-.009-.007Zm0,0-.633.774.009.007ZM14.36,17.8l.133-.991Zm-.928.385.8.607Zm-.3,1.457-1-.1Zm-.153.82L12.1,20Zm-.521.471L12.1,20Zm-2.925,0L9.9,20Zm-.521-.471L9.9,20Zm-.152-.82-1,.1Zm-.3-1.457-.8.607ZM7.641,17.8l-.133-.991ZM6.4,18.619l-.633-.774-.016.013-.015.014Zm0,0,.633.774.016-.013.015-.014Zm-.687.472.3.953Zm-.7-.035-.4.918Zm-.637-.538.707-.707Zm-.893-.893-.707.707Zm-.538-.637.918-.4Zm-.035-.7.953.3Zm.472-.687.774.633ZM4.2,14.359l.991.133Zm-.385-.928.607-.8Zm-1.456-.3-.1,1Zm-.82-.152L2,12.1Zm-.472-.521-.93.368Zm0-2.925L.14,9.169Zm.471-.521L1.08,8.123Zm.82-.152v-1h-.1Zm0,0v1h.1Zm1.457-.3-.607-.8ZM4.2,7.641l.991-.133ZM3.381,6.4l.774-.633Zm-.472-.688.953-.3Zm.035-.7-.918-.4Zm.538-.637.707.707Zm.893-.893-.707-.707Zm.637-.538-.4-.918Zm.7-.035.3-.953Zm.688.472.633-.774ZM7.64,4.2l.133-.991Zm.929-.385-.8-.606Zm.3-1.456,1,.1Zm.152-.82-.889-.458Zm.521-.472L9.9,2Zm2.925,0L12.83.14ZM14.13,2.259c-.02-.2-.04-.4-.069-.575a2.019,2.019,0,0,0-.19-.6L12.1,2c-.023-.045-.018-.061,0,.018s.028.213.051.443Zm.1.949c.063.083.043.12.008-.075s-.06-.447-.1-.874l-1.99.2c.039.394.074.748.125,1.029a2.126,2.126,0,0,0,.37.934Zm0,0-1.59,1.213a2,2,0,0,0,1.857.769Zm.738-.6c-.332.272-.536.438-.691.545s-.151.073-.048.059l.267,1.982a2.127,2.127,0,0,0,.922-.4c.235-.163.51-.389.816-.64Zm1.016-.651a2.019,2.019,0,0,0-.561.292c-.14.1-.3.229-.455.358L16.23,4.155c.179-.146.276-.225.349-.277s.057-.031.009-.016Zm1.4.07a2,2,0,0,0-1.4-.07l.609,1.905Zm.947.748c-.145-.145-.287-.288-.417-.4a2.02,2.02,0,0,0-.529-.347l-.8,1.835c-.046-.02-.053-.036.008.017s.156.147.32.311Zm.893.893-.893-.893L16.917,4.189l.893.893Zm.748.947a2.02,2.02,0,0,0-.347-.529c-.114-.13-.257-.273-.4-.417L17.811,5.083c.163.163.251.252.311.32s.037.054.017.008Zm.07,1.4a2,2,0,0,0-.07-1.4l-1.835.8Zm-.651,1.016c.13-.158.258-.315.358-.455a2.022,2.022,0,0,0,.292-.561l-1.9-.605c.015-.048.03-.056-.016.009s-.131.17-.277.349Zm-.6.739c-.014.1-.054.115.059-.048s.273-.359.545-.691L17.845,5.769c-.251.306-.477.581-.64.816a2.128,2.128,0,0,0-.4.922Zm0,0L16.8,7.5a2,2,0,0,0,.769,1.857Zm.95.095c-.427-.043-.689-.07-.874-.1s-.158-.055-.076.008l-1.213,1.59a2.127,2.127,0,0,0,.934.37c.281.051.636.085,1.029.125Zm1.179.259a2.02,2.02,0,0,0-.6-.19c-.17-.029-.372-.048-.575-.069l-.2,1.99c.23.023.354.036.443.051s.063.018.018,0ZM21.86,9.17a2,2,0,0,0-.943-1.042L20,9.9Zm.14,1.2c0-.2,0-.407-.011-.579a2.017,2.017,0,0,0-.129-.62L20,9.9c-.018-.047-.012-.063-.007.017s.007.215.007.446Zm0,1.264V10.368H20v1.264Zm-.14,1.2a2.019,2.019,0,0,0,.129-.619c.011-.172.011-.374.011-.579H20c0,.231,0,.356-.007.446s-.012.064.007.017Zm-.943,1.042a2,2,0,0,0,.943-1.042L20,12.1Zm-1.178.259c.2-.02.405-.04.575-.069a2.021,2.021,0,0,0,.6-.19L20,12.1c.045-.023.061-.018-.018,0s-.213.028-.443.051Zm.065-.009-.329-1.973Zm-1.014.1c-.083.063-.12.043.076.008s.447-.06.874-.1l-.2-1.99c-.394.039-.748.074-1.029.125a2.127,2.127,0,0,0-.934.37Zm0,0-1.213-1.59a2,2,0,0,0-.769,1.857Zm.6.738c-.272-.332-.437-.536-.545-.691s-.073-.151-.059-.048l-1.982.267a2.127,2.127,0,0,0,.4.922c.163.235.389.51.639.816Zm.65,1.016a2.02,2.02,0,0,0-.292-.561c-.1-.14-.229-.3-.358-.455l-1.548,1.267c.146.179.225.276.277.349s.031.057.016.009Zm-.07,1.4a2,2,0,0,0,.07-1.4l-1.905.609Zm-.748.946c.145-.145.288-.287.4-.417a2.021,2.021,0,0,0,.347-.529l-1.835-.8c.02-.046.036-.053-.017.008s-.147.156-.31.32Zm-.894.894.894-.894-1.414-1.414-.894.893Zm-.947.748a2.02,2.02,0,0,0,.529-.347c.13-.114.273-.257.417-.4l-1.41-1.411c-.163.163-.252.251-.32.311s-.054.037-.008.017Zm-1.4.07a2,2,0,0,0,1.4-.07l-.8-1.835Zm-1.016-.65c.158.13.315.258.455.358a2.02,2.02,0,0,0,.561.292l.609-1.9c.048.015.056.031-.009-.016s-.17-.131-.349-.277Zm.009.007,1.249-1.562Zm-.747-.611c-.1-.014-.115-.054.048.059s.359.273.691.545l1.266-1.548c-.306-.251-.581-.477-.816-.64a2.127,2.127,0,0,0-.922-.4Zm0,0,.267-1.982a2,2,0,0,0-1.857.769Zm-.1.95c.043-.427.07-.689.1-.874s.055-.158-.008-.075l-1.59-1.213a2.128,2.128,0,0,0-.37.934c-.051.281-.085.636-.125,1.029Zm-.259,1.179a2.018,2.018,0,0,0,.19-.6c.029-.17.048-.372.069-.575l-1.99-.2c-.023.23-.036.354-.051.443s-.018.063,0,.018Zm-1.042.943a2,2,0,0,0,1.042-.943L12.1,20Zm-1.2.14c.2,0,.407,0,.579-.011a2.022,2.022,0,0,0,.62-.129L12.1,20c.047-.018.063-.012-.017-.007s-.215.007-.446.007Zm-1.263,0h1.263V20H10.368Zm-1.2-.14a2.017,2.017,0,0,0,.62.129c.172.011.375.011.579.011V20c-.231,0-.356,0-.446-.007S9.852,19.981,9.9,20Zm-1.042-.943a2,2,0,0,0,1.042.943L9.9,20Zm-.259-1.179c.02.2.04.405.069.575a2.02,2.02,0,0,0,.19.6L9.9,20c.023.045.018.061,0-.018s-.028-.213-.051-.443Zm-.095-.95c-.063-.083-.043-.12-.008.076s.06.447.1.874l1.99-.2c-.039-.394-.074-.748-.125-1.029a2.127,2.127,0,0,0-.37-.934Zm0,0,1.59-1.213A2,2,0,0,0,7.5,16.8Zm-.739.6c.332-.272.536-.438.691-.545s.151-.073.048-.059L7.5,16.8a2.126,2.126,0,0,0-.922.4c-.235.163-.51.389-.816.64Zm.031-.026L5.738,17.871Zm-1.048.677a2.019,2.019,0,0,0,.561-.292c.141-.1.3-.229.455-.358l-1.258-1.54c-.179.146-.276.225-.349.277s-.057.031-.009.016Zm-1.4-.07a2,2,0,0,0,1.4.07l-.6-1.9Zm-.947-.749c.145.145.287.288.417.4a2.02,2.02,0,0,0,.529.347l.8-1.835c.046.02.053.036-.008-.017s-.156-.147-.32-.311Zm-.893-.893.893.893L5.078,17.8l-.893-.893Zm-.748-.947a2.021,2.021,0,0,0,.347.529c.114.13.257.273.4.417l1.414-1.414c-.163-.163-.251-.252-.311-.32s-.037-.054-.017-.008Zm-.07-1.4a2,2,0,0,0,.07,1.4l1.835-.8ZM2.6,14.96c-.13.158-.258.315-.358.455a2.02,2.02,0,0,0-.292.561l1.9.609c-.015.048-.031.056.016-.009s.131-.17.277-.349Zm.6-.739c.014-.1.054-.115-.059.048s-.273.359-.545.691l1.548,1.266c.251-.306.477-.581.64-.816a2.127,2.127,0,0,0,.4-.922Zm0,0,1.982.267a2,2,0,0,0-.769-1.857Zm-.949-.1c.427.043.689.07.874.1s.158.055.075-.008l1.213-1.59a2.126,2.126,0,0,0-.934-.37c-.281-.051-.636-.085-1.029-.125Zm-1.179-.259a2.019,2.019,0,0,0,.6.19c.17.029.372.048.575.069l.2-1.99c-.23-.023-.354-.036-.443-.051s-.062-.018-.018,0ZM.14,12.83a2,2,0,0,0,.943,1.042L2,12.1ZM0,11.632c0,.2,0,.407.011.579a2.02,2.02,0,0,0,.129.62L2,12.1c.018.047.012.063.007-.017S2,11.863,2,11.632Zm0-1.263v1.263H2V10.368Zm.14-1.2a2.021,2.021,0,0,0-.129.62C0,9.961,0,10.164,0,10.368H2c0-.231,0-.356.007-.446S2.018,9.858,2,9.9Zm.943-1.042A2,2,0,0,0,.14,9.169L2,9.9Zm1.179-.259c-.2.02-.4.04-.575.069a2.02,2.02,0,0,0-.6.19L2,9.9c-.045.023-.061.018.018,0s.213-.028.443-.051Zm.1,0v0Zm0,0v0Zm.85-.09c.083-.063.12-.043-.075-.008s-.447.06-.874.1l.2,1.99c.394-.039.748-.074,1.03-.125a2.127,2.127,0,0,0,.934-.37Zm0,0,1.213,1.59a2,2,0,0,0,.769-1.856Zm-.6-.739c.272.332.438.536.545.691s.073.151.059.048L5.2,7.512a2.127,2.127,0,0,0-.4-.923c-.163-.235-.389-.51-.64-.816ZM1.957,6.018a2.02,2.02,0,0,0,.292.561c.1.141.229.3.358.455L4.155,5.769c-.146-.179-.225-.276-.277-.349s-.031-.057-.016-.009Zm.07-1.4a2,2,0,0,0-.07,1.4L3.862,5.41Zm.749-.947c-.145.145-.288.288-.4.417a2.02,2.02,0,0,0-.347.53l1.835.8c-.02.046-.036.053.017-.008s.147-.156.311-.32Zm.893-.893-.893.893L4.189,5.082l.893-.893Zm0,0L5.083,4.189Zm.947-.749a2.02,2.02,0,0,0-.529.347c-.13.114-.273.257-.417.4L5.083,4.189c.163-.163.252-.251.32-.311s.054-.037.008-.017Zm1.4-.07a2,2,0,0,0-1.4.07l.8,1.835Zm1.017.651c-.158-.13-.315-.258-.455-.358a2.02,2.02,0,0,0-.561-.292l-.607,1.9c-.048-.015-.056-.031.009.016s.17.131.349.277Zm.738.6c.1.014.115.054-.048-.059s-.359-.273-.691-.545L5.769,4.155c.306.25.581.477.816.64a2.127,2.127,0,0,0,.922.4Zm0,0L7.507,5.193a2,2,0,0,0,1.857-.769Zm.095-.949c-.043.427-.07.688-.1.874s-.055.158.008.075l1.59,1.213a2.126,2.126,0,0,0,.37-.934c.051-.281.085-.635.125-1.029Zm.259-1.178a2.02,2.02,0,0,0-.19.6c-.029.17-.048.371-.069.575l1.99.2c.023-.23.036-.354.051-.443s.018-.062,0-.018ZM9.17.14a2,2,0,0,0-1.042.943L9.9,2ZM10.37,0c-.2,0-.407,0-.579.011A2.02,2.02,0,0,0,9.17.14L9.9,2c-.047.018-.063.012.017.007S10.137,2,10.368,2Zm1.264,0H10.368V2h1.264Zm1.2.14a2.02,2.02,0,0,0-.62-.129C12.039,0,11.836,0,11.632,0V2c.231,0,.356,0,.446.007s.064.012.017-.007Zm1.042.943A2,2,0,0,0,12.83.14L12.1,2ZM14,11a3,3,0,0,1-3,3v2a5,5,0,0,0,5-5ZM11,8a3,3,0,0,1,3,3h2a5,5,0,0,0-5-5ZM8,11a3,3,0,0,1,3-3V6a5,5,0,0,0-5,5Zm3,3a3,3,0,0,1-3-3H6a5,5,0,0,0,5,5Z" fill="#585858"/>
  </g>
</svg>
