<svg xmlns="http://www.w3.org/2000/svg" width="22" height="22" viewBox="0 0 22 22">
    <g>
        <g>
            <path fill="#fff" d="M13.136 2.361l1-.1zm-.152-.82L12.1 2zm.447 2.276l.8-.607zm.928.385l-.133-.991zm1.241-.821l.633.774zm.687-.472l.3.953zm.7.035l.4-.918zm.637.538l-.707.707zm.893.893l.707-.707zm.538.637l.918-.4zm.035.7l.953.3zm-.472.687l-.774-.633zM17.8 7.641l-.991-.133zm.384.928l-.606.8zm1.457.295l.1-1zm.82.152l.458-.889zm.471.521l.93-.368zm0 2.925L20 12.1zm-.472.521l.458.889zm-.82.152l-.1-.995h-.033l-.032.005zm0 0l.1 1h.033l.032-.005zm-1.456.295l-.606-.8zm-.385.929l-.991.134zm.821 1.238l-.774.633zm.472.687l-.952.3zm-.035.7l-.917-.4zm-.538.637l.707.707zm-.894.894l-.707-.707zm-.637.538l.4.917zm-.7.035l-.3.952zm-.687-.472l.633-.774-.009-.007zm0 0l-.633.774.009.007zM14.36 17.8l.133-.991zm-.928.385l.8.607zm-.295 1.457l-1-.1zm-.153.82L12.1 20zm-.521.471L12.1 20zm-2.925 0L9.905 20zm-.521-.471L9.905 20zm-.152-.82l-1 .1zm-.295-1.457l-.8.607zm-.929-.385l-.133-.991zm-1.241.819l-.633-.774-.016.013-.015.014zm0 0l.633.774.016-.013.015-.014zm-.687.472l.3.953zm-.7-.035l-.4.918zm-.637-.538l.707-.707zm-.893-.893l-.707.707zm-.538-.637l.918-.4zm-.035-.7l.953.3zm.472-.687l.774.633zm.818-1.242l.991.133zm-.385-.928l.607-.8zm-1.456-.3l-.1 1zm-.82-.152L2 12.1zm-.472-.521l-.93.368zm0-2.925L.14 9.169zm.471-.521l-.458-.889zm.82-.152v-1h-.1zm0 0v1h.1zm1.457-.3l-.607-.795zm.385-.919l.991-.133zM3.381 6.4l.774-.633zm-.472-.688l.953-.3zm.035-.7l-.918-.4zm.538-.637l.707.707zm.893-.893l-.707-.707zm.637-.538l-.4-.918zm.7-.035l.3-.953zm.688.472l.633-.774zm1.24.819l.133-.991zm.929-.385l-.8-.606zm.295-1.456l1 .1zm.152-.82l-.889-.458zm.521-.472L9.905 2zm2.925 0L12.83.14zm1.668 1.192c-.02-.2-.04-.405-.069-.575a2.019 2.019 0 0 0-.19-.6L12.1 2c-.023-.045-.018-.061 0 .018s.028.213.051.443zm.095.949c.063.083.043.12.008-.075s-.06-.447-.1-.874l-1.99.2c.039.394.074.748.125 1.029a2.126 2.126 0 0 0 .37.934zm0 0l-1.59 1.213a2 2 0 0 0 1.857.769zm.738-.6c-.332.272-.536.438-.691.545s-.151.073-.048.059l.267 1.982a2.127 2.127 0 0 0 .922-.4c.235-.163.51-.389.816-.64zm1.016-.651a2.019 2.019 0 0 0-.561.292c-.14.1-.3.229-.455.358l1.267 1.548c.179-.146.276-.225.349-.277s.057-.031.009-.016zm1.4.07a2 2 0 0 0-1.4-.07l.609 1.905zm.947.748c-.145-.145-.287-.288-.417-.4a2.02 2.02 0 0 0-.529-.347l-.8 1.835c-.046-.02-.053-.036.008.017s.156.147.32.311zm.893.893l-.893-.893-1.409 1.414.893.893zm.748.947a2.02 2.02 0 0 0-.347-.529c-.114-.13-.257-.273-.4-.417l-1.409 1.414c.163.163.251.252.311.32s.037.054.017.008zm.07 1.4a2 2 0 0 0-.07-1.4l-1.835.8zm-.651 1.016c.13-.158.258-.315.358-.455a2.022 2.022 0 0 0 .292-.561l-1.898-.605c.015-.048.03-.056-.016.009s-.131.17-.277.349zm-.6.739c-.014.1-.054.115.059-.048s.273-.359.545-.691l-1.545-1.262c-.251.306-.477.581-.64.816a2.128 2.128 0 0 0-.4.922zm0 0l-1.982-.267a2 2 0 0 0 .769 1.857zm.95.095c-.427-.043-.689-.07-.874-.1s-.158-.055-.076.008l-1.213 1.59a2.127 2.127 0 0 0 .934.37c.281.051.636.085 1.029.125zm1.179.259a2.02 2.02 0 0 0-.6-.19c-.17-.029-.372-.048-.575-.069l-.2 1.99c.23.023.354.036.443.051s.063.018.018 0zm.945 1.046a2 2 0 0 0-.943-1.042L20 9.905zm.14 1.2c0-.2 0-.407-.011-.579a2.017 2.017 0 0 0-.129-.62L20 9.905c-.018-.047-.012-.063-.007.017s.007.215.007.446zm0 1.264v-1.266h-2v1.264zm-.14 1.2a2.019 2.019 0 0 0 .129-.619c.011-.172.011-.374.011-.579h-2c0 .231 0 .356-.007.446s-.012.064.007.017zm-.943 1.042a2 2 0 0 0 .943-1.042L20 12.1zm-1.178.259c.2-.02.405-.04.575-.069a2.021 2.021 0 0 0 .6-.19L20 12.1c.045-.023.061-.018-.018 0s-.213.028-.443.051zm.065-.009l-.329-1.973zm-1.014.1c-.083.063-.12.043.076.008s.447-.06.874-.1l-.2-1.99c-.394.039-.748.074-1.029.125a2.127 2.127 0 0 0-.934.37zm0 0l-1.213-1.59a2 2 0 0 0-.769 1.857zm.6.738c-.272-.332-.437-.536-.545-.691s-.073-.151-.059-.048l-1.982.267a2.127 2.127 0 0 0 .4.922c.163.235.389.51.639.816zm.65 1.016a2.02 2.02 0 0 0-.292-.561c-.1-.14-.229-.3-.358-.455l-1.548 1.267c.146.179.225.276.277.349s.031.057.016.009zm-.07 1.4a2 2 0 0 0 .07-1.4l-1.905.609zm-.748.946c.145-.145.288-.287.4-.417a2.021 2.021 0 0 0 .347-.529l-1.835-.8c.02-.046.036-.053-.017.008s-.147.156-.31.32zm-.894.894l.894-.894-1.414-1.414-.894.893zm-.947.748a2.02 2.02 0 0 0 .529-.347c.13-.114.273-.257.417-.4l-1.41-1.411c-.163.163-.252.251-.32.311s-.054.037-.008.017zm-1.4.07a2 2 0 0 0 1.4-.07l-.8-1.835zm-1.016-.65c.158.13.315.258.455.358a2.02 2.02 0 0 0 .561.292l.609-1.905c.048.015.056.031-.009-.016s-.17-.131-.349-.277zm.009.007l1.249-1.562zm-.747-.611c-.1-.014-.115-.054.048.059s.359.273.691.545l1.266-1.548c-.306-.251-.581-.477-.816-.64a2.127 2.127 0 0 0-.922-.4zm0 0l.267-1.982a2 2 0 0 0-1.857.769zm-.1.95c.043-.427.07-.689.1-.874s.055-.158-.008-.075l-1.59-1.213a2.128 2.128 0 0 0-.37.934c-.051.281-.085.636-.125 1.029zm-.259 1.179a2.018 2.018 0 0 0 .19-.6c.029-.17.048-.372.069-.575l-1.99-.2c-.023.23-.036.354-.051.443s-.018.063 0 .018zm-1.042.943a2 2 0 0 0 1.042-.943L12.1 20zm-1.2.14c.2 0 .407 0 .579-.011a2.022 2.022 0 0 0 .62-.129L12.1 20c.047-.018.063-.012-.017-.007s-.215.007-.446.007zm-1.263 0h1.263V20h-1.258zm-1.2-.14a2.017 2.017 0 0 0 .62.129c.172.011.375.011.579.011V20c-.231 0-.356 0-.446-.007s-.064-.012-.017.007zm-1.042-.943a2 2 0 0 0 1.042.943L9.905 20zm-.259-1.179c.02.2.04.405.069.575a2.02 2.02 0 0 0 .19.6L9.905 20c.023.045.018.061 0-.018s-.028-.213-.051-.443zm-.095-.95c-.063-.083-.043-.12-.008.076s.06.447.1.874l1.99-.2c-.039-.394-.074-.748-.125-1.029a2.127 2.127 0 0 0-.37-.934zm0 0l1.59-1.213a2 2 0 0 0-1.857-.769zm-.739.6c.332-.272.536-.438.691-.545s.151-.073.048-.059L7.5 16.798a2.126 2.126 0 0 0-.922.4c-.235.163-.51.389-.816.64zm.031-.026l-1.321-1.487zm-1.048.677a2.019 2.019 0 0 0 .561-.292c.141-.1.3-.229.455-.358l-1.258-1.54c-.179.146-.276.225-.349.277s-.057.031-.009.016zm-1.4-.07a2 2 0 0 0 1.4.07l-.601-1.897zm-.947-.749c.145.145.287.288.417.4a2.02 2.02 0 0 0 .529.347l.8-1.835c.046.02.053.036-.008-.017s-.156-.147-.32-.311zm-.893-.893l.893.893 1.414-1.414-.893-.893zm-.748-.947a2.021 2.021 0 0 0 .347.529c.114.13.257.273.4.417l1.414-1.414c-.163-.163-.251-.252-.311-.32s-.037-.054-.017-.008zm-.07-1.4a2 2 0 0 0 .07 1.4l1.835-.8zm.651-1.016c-.13.158-.258.315-.358.455a2.02 2.02 0 0 0-.292.561l1.905.609c-.015.048-.031.056.016-.009s.131-.17.277-.349zm.6-.739c.014-.1.054-.115-.059.048s-.273.359-.545.691l1.548 1.266c.251-.306.477-.581.64-.816a2.127 2.127 0 0 0 .4-.922zm0 0l1.982.267a2 2 0 0 0-.769-1.857zm-.949-.095c.427.043.689.07.874.1s.158.055.075-.008l1.213-1.59a2.126 2.126 0 0 0-.934-.37c-.281-.051-.636-.085-1.029-.125zm-1.179-.259a2.019 2.019 0 0 0 .6.19c.17.029.372.048.575.069l.2-1.99c-.23-.023-.354-.036-.443-.051s-.062-.018-.018 0zM.14 12.83a2 2 0 0 0 .943 1.042L2 12.1zM0 11.632c0 .2 0 .407.011.579a2.02 2.02 0 0 0 .129.62L2 12.1c.018.047.012.063.007-.017S2 11.863 2 11.632zm0-1.263v1.263h2v-1.264zm.14-1.2a2.021 2.021 0 0 0-.129.62C0 9.961 0 10.164 0 10.368h2c0-.231 0-.356.007-.446s.011-.064-.007-.017zm.943-1.042A2 2 0 0 0 .14 9.169L2 9.905zm1.179-.259c-.2.02-.405.04-.575.069a2.02 2.02 0 0 0-.6.19L2 9.905c-.045.023-.061.018.018 0s.213-.028.443-.051zm.1 0v2zm0 0v2zm.85-.09c.083-.063.12-.043-.075-.008s-.447.06-.874.1l.2 1.99c.394-.039.748-.074 1.03-.125a2.127 2.127 0 0 0 .934-.37zm0 0l1.213 1.59a2 2 0 0 0 .769-1.856zm-.6-.739c.272.332.438.536.545.691s.073.151.059.048l1.982-.266a2.127 2.127 0 0 0-.4-.923c-.163-.235-.389-.51-.64-.816zm-.655-1.021a2.02 2.02 0 0 0 .292.561c.1.141.229.3.358.455l1.548-1.265c-.146-.179-.225-.276-.277-.349s-.031-.057-.016-.009zm.07-1.4a2 2 0 0 0-.07 1.4l1.905-.608zm.749-.947c-.145.145-.288.288-.4.417a2.02 2.02 0 0 0-.347.53l1.835.795c-.02.046-.036.053.017-.008s.147-.156.311-.32zm.893-.893l-.893.893 1.413 1.411.893-.893zm0 0l1.414 1.411zm.947-.749a2.02 2.02 0 0 0-.529.347c-.13.114-.273.257-.417.4l1.413 1.413c.163-.163.252-.251.32-.311s.054-.037.008-.017zm1.4-.07a2 2 0 0 0-1.4.07l.8 1.835zm1.017.651c-.158-.13-.315-.258-.455-.358a2.02 2.02 0 0 0-.561-.292L5.41 3.861c-.048-.015-.056-.031.009.016s.17.131.349.277zm.738.6c.1.014.115.054-.048-.059s-.359-.273-.691-.545L5.769 4.155c.306.25.581.477.816.64a2.127 2.127 0 0 0 .922.4zm0 0l-.264 1.983a2 2 0 0 0 1.857-.769zm.095-.949c-.043.427-.07.688-.1.874s-.055.158.008.075l1.59 1.213a2.126 2.126 0 0 0 .37-.934c.051-.281.085-.635.125-1.029zm.259-1.178a2.02 2.02 0 0 0-.19.6c-.029.17-.048.371-.069.575l1.99.2c.023-.23.036-.354.051-.443s.018-.062 0-.018zM9.17.14a2 2 0 0 0-1.042.943L9.905 2zm1.2-.14c-.2 0-.407 0-.579.011A2.02 2.02 0 0 0 9.17.14L9.905 2c-.047.018-.063.012.017.007S10.137 2 10.368 2zm1.264 0h-1.266v2h1.264zm1.2.14a2.02 2.02 0 0 0-.62-.129C12.039 0 11.836 0 11.632 0v2c.231 0 .356 0 .446.007s.064.012.017-.007zm1.042.943A2 2 0 0 0 12.83.14L12.1 2zM14 11a3 3 0 0 1-3 3v2a5 5 0 0 0 5-5zm-3-3a3 3 0 0 1 3 3h2a5 5 0 0 0-5-5zm-3 3a3 3 0 0 1 3-3V6a5 5 0 0 0-5 5zm3 3a3 3 0 0 1-3-3H6a5 5 0 0 0 5 5z" transform="translate(-1515 -446) translate(1526 457) translate(-11 -11)"/>
        </g>
    </g>
</svg>
