<svg xmlns="http://www.w3.org/2000/svg" width="1920" height="1280" viewBox="0 0 1920 1280">
    <defs>
        <clipPath id="clip-path">
            <path id="Rectangle_4605" fill="none" d="M0 0H1920V1280H0z"/>
        </clipPath>
        <clipPath id="clip-path-2">
            <path id="Rectangle_4604" fill="#fff" stroke="#707070" d="M0 0H1920V1312H0z"/>
        </clipPath>
        <style>
            .cls-6{fill:#fff}
        </style>
    </defs>
    <g id="Mask_Group_28" clip-path="url(#clip-path)">
        <g id="Group_24927" opacity="0.72">
            <path id="Path_24054" d="M415.523 209.511a2.91 2.91 0 0 1-2.689-1.8c-5.728-13.831-9.952-18.054-23.783-23.782a2.91 2.91 0 0 1 0-5.377c13.832-5.731 18.055-9.954 23.783-23.785a2.91 2.91 0 0 1 5.377 0c5.73 13.831 9.953 18.054 23.786 23.785a2.91 2.91 0 0 1 0 5.377c-13.831 5.728-18.055 9.951-23.785 23.782a2.909 2.909 0 0 1-2.689 1.8z" class="cls-6" transform="rotate(25 -955.48 3379.156)"/>
            <path id="Path_24056" d="M415.523 209.511a2.91 2.91 0 0 1-2.689-1.8c-5.728-13.831-9.952-18.054-23.783-23.782a2.91 2.91 0 0 1 0-5.377c13.832-5.731 18.055-9.954 23.783-23.785a2.91 2.91 0 0 1 5.377 0c5.73 13.831 9.953 18.054 23.786 23.785a2.91 2.91 0 0 1 0 5.377c-13.831 5.728-18.055 9.951-23.785 23.782a2.909 2.909 0 0 1-2.689 1.8z" class="cls-6" transform="rotate(70 813.35 1503.712)"/>
            <path id="Path_24049" d="M407.86 194.186a2.121 2.121 0 0 1-1.96-1.31c-4.176-10.082-7.254-13.16-17.336-17.336a2.121 2.121 0 0 1 0-3.92c10.083-4.177 13.161-7.256 17.336-17.337a2.121 2.121 0 0 1 3.919 0c4.176 10.082 7.255 13.16 17.338 17.337a2.121 2.121 0 0 1 0 3.92c-10.082 4.176-13.161 7.254-17.337 17.336a2.121 2.121 0 0 1-1.96 1.31z" class="cls-6" transform="rotate(-114 386.697 251.083)"/>
            <path id="Path_24050" d="M403.976 186.417a1.721 1.721 0 0 1-1.59-1.063c-3.388-8.182-5.887-10.679-14.068-14.068a1.721 1.721 0 0 1 0-3.181c8.182-3.39 10.68-5.888 14.068-14.069a1.721 1.721 0 0 1 3.181 0c3.389 8.182 5.888 10.679 14.07 14.069a1.721 1.721 0 0 1 0 3.181c-8.182 3.389-10.68 5.886-14.069 14.068a1.721 1.721 0 0 1-1.59 1.063z" class="cls-6" transform="rotate(-144.99 353.808 472.38)"/>
            <path id="Path_24051" d="M427.254 232.974a4.118 4.118 0 0 1-3.8-2.542c-8.106-19.571-14.082-25.546-33.653-33.652a4.117 4.117 0 0 1 0-7.608c19.573-8.109 25.548-14.085 33.653-33.655a4.117 4.117 0 0 1 7.608 0c8.107 19.571 14.084 25.546 33.657 33.655a4.118 4.118 0 0 1 0 7.608c-19.571 8.106-25.548 14.08-33.655 33.652a4.116 4.116 0 0 1-3.8 2.542z" class="cls-6" transform="translate(-427.255 723.026)"/>
            <path id="Path_24053" d="M400.392 179.249a1.352 1.352 0 0 1-1.25-.835c-2.662-6.428-4.625-8.39-11.053-11.053a1.352 1.352 0 0 1 0-2.5c6.429-2.663 8.391-4.626 11.053-11.054a1.352 1.352 0 0 1 2.5 0c2.663 6.428 4.626 8.39 11.054 11.054a1.353 1.353 0 0 1 0 2.5c-6.428 2.662-8.391 4.625-11.054 11.053a1.352 1.352 0 0 1-1.249.835z" class="cls-6" transform="scale(-1) rotate(-76 -351.143 664.476)"/>
            <circle id="Ellipse_1302" cx="7.5" cy="7.5" r="7.5" class="cls-6" transform="translate(155 47)"/>
            <circle id="Ellipse_1305" cx="21" cy="21" r="21" class="cls-6" transform="translate(1676 320)"/>
            <circle id="Ellipse_1304" cx="7.5" cy="7.5" r="7.5" class="cls-6" transform="translate(1528 1219)"/>
            <circle id="Ellipse_1303" cx="14" cy="14" r="14" class="cls-6" transform="translate(609 1144)"/>
        </g>
    </g>
</svg>
