<svg xmlns="http://www.w3.org/2000/svg" width="21.87" height="23.805" viewBox="0 0 21.87 23.805">
    <defs>
        <style>
            .cls-1{fill:#ff608e}
        </style>
    </defs>
    <g id="User_fill" transform="translate(-3.642 -3)">
        <path id="Path_23810" d="M24.588 22.073a1.076 1.076 0 0 0 .795-1.553 9.921 9.921 0 0 0-3.637-3.627A14.088 14.088 0 0 0 14.577 15a14.088 14.088 0 0 0-7.168 1.893 9.92 9.92 0 0 0-3.637 3.627 1.076 1.076 0 0 0 .795 1.553 49.066 49.066 0 0 0 20.021 0z" class="cls-1" transform="translate(0 3.7)"/>
        <circle id="Ellipse_1259" cx="6.542" cy="6.542" r="6.542" class="cls-1" transform="translate(8.036 3)"/>
    </g>
</svg>
